<svg width="16" height="16" viewBox="0 0 16 16" fill="none" xmlns="http://www.w3.org/2000/svg">
<path d="M15.9125 14.4125C15.9125 14.5409 15.8865 14.6694 15.8354 14.7898C15.7341 15.0318 15.5386 15.2243 15.2929 15.3241C15.1706 15.3744 15.0402 15.4 14.9099 15.4H4.88412C4.3297 15.4 3.88155 14.9576 3.88155 14.4125C3.88155 13.8674 4.3297 13.425 4.88412 13.425H12.4896L1.16754 2.27322C0.775533 1.88711 0.775533 1.26295 1.16754 0.876834C1.55955 0.490722 2.19324 0.490722 2.58525 0.876834L13.9073 12.0286V4.53753C13.9073 3.99243 14.3555 3.55003 14.9099 3.55003C15.4643 3.55003 15.9125 3.99243 15.9125 4.53753V14.4125Z" fill="#2D2A2A"/>
</svg>
