<svg width="16" height="16" viewBox="0 0 16 16" fill="none" xmlns="http://www.w3.org/2000/svg">
<path d="M15.9121 1.58751V11.4625C15.9121 12.0076 15.4639 12.45 14.9095 12.45C14.3551 12.45 13.9069 12.0076 13.9069 11.4625V3.97139L2.58477 15.1232C2.38927 15.3158 2.13257 15.4125 1.87591 15.4125C1.61925 15.4125 1.36256 15.3158 1.16705 15.1232C0.775044 14.7371 0.775044 14.1129 1.16705 13.7268L12.4892 2.57501H4.88366C4.32924 2.57501 3.88108 2.13261 3.88108 1.58751C3.88108 1.04241 4.32924 0.600006 4.88366 0.600006H14.9095C15.0398 0.600006 15.1703 0.626574 15.2926 0.675949C15.5382 0.775687 15.7337 0.968264 15.835 1.2102C15.8861 1.33068 15.9121 1.45913 15.9121 1.58751Z" fill="#2D2A2A"/>
</svg>
